<?xml version="1.0" encoding="UTF-8" standalone="no"?>
<!DOCTYPE svg PUBLIC "-//W3C//DTD SVG 1.1//EN" "http://www.w3.org/Graphics/SVG/1.1/DTD/svg11.dtd">
<svg width="100%" height="100%" viewBox="0 0 2000 2000" version="1.1" xmlns="http://www.w3.org/2000/svg" xmlns:xlink="http://www.w3.org/1999/xlink" xml:space="preserve" xmlns:serif="http://www.serif.com/" style="fill-rule:evenodd;clip-rule:evenodd;stroke-linejoin:round;stroke-miterlimit:2;">
    <rect id="Artboard1" x="0" y="0" width="2000" height="2000" style="fill:rgb(255,217,61);"/>
    <clipPath id="_clip1">
        <rect id="Artboard11" serif:id="Artboard1" x="0" y="0" width="2000" height="2000"/>
    </clipPath>
    <g clip-path="url(#_clip1)">
        <g transform="matrix(0.972155,0,0,0.972155,68.039138,213.317437)">
            <g transform="matrix(2188.542448,0,0,2188.542448,1624.96369,1519.29508)">
            </g>
            <text x="399.38px" y="1519.295px" style="font-family:'KUBO', serif;font-size:2188.542px;fill:rgb(177,150,39);">?</text>
        </g>
        <g transform="matrix(0.972155,0,0,0.972155,16.012241,161.29054)">
            <g transform="matrix(2188.542448,0,0,2188.542448,1624.96369,1519.29508)">
            </g>
            <text x="399.38px" y="1519.295px" style="font-family:'KUBO', serif;font-size:2188.542px;fill:white;">?</text>
        </g>
        <g transform="matrix(1,0,0,0.399003,0,0)">
            <rect x="0" y="0" width="2000" height="258.198" style="fill:rgb(255,237,135);"/>
        </g>
        <g transform="matrix(-0,1,-0.399003,-0,103.021648,0)">
            <rect x="0" y="0" width="2000" height="258.198" style="fill:rgb(255,237,135);"/>
        </g>
        <g transform="matrix(-1,-0,0,-0.399003,2000,2000)">
            <rect x="0" y="0" width="2000" height="258.198" style="fill:rgb(255,173,50);"/>
        </g>
        <g transform="matrix(0,-1,0.399003,0,1896.978352,2000)">
            <rect x="0" y="0" width="2000" height="258.198" style="fill:rgb(255,173,50);"/>
        </g>
        <g transform="matrix(0.947248,0,0,0.947248,47.786411,32.182246)">
            <circle cx="227.029" cy="238.602" r="109.244" style="fill:rgb(177,150,39);"/>
        </g>
        <g transform="matrix(0.947248,0,0,0.947248,47.786411,1515.74627)">
            <circle cx="227.029" cy="238.602" r="109.244" style="fill:rgb(177,150,39);"/>
        </g>
        <g transform="matrix(-1,0,0,-1,2000,2000)">
            <path d="M0,0L0,2000L277.821,2000L407.235,1502.413L872.691,884.873L872.098,427.758L1498.39,0L0,0Z"/>
            <clipPath id="_clip2">
                <path d="M0,0L0,2000L277.821,2000L407.235,1502.413L872.691,884.873L872.098,427.758L1498.39,0L0,0Z"/>
            </clipPath>
            <g clip-path="url(#_clip2)">
                <g transform="matrix(-1,0,0,-1,1353.376322,2000)">
                    <g transform="matrix(2.525573,0,0,2.525573,-900.060054,-1993.053508)">
                        <rect x="469.562" y="915.869" width="42.65" height="42.65" style="fill:rgb(250,188,3);fill-opacity:0.6;"/>
                        <path d="M341.611,745.268L384.261,745.268L384.261,787.918L341.611,787.918L341.611,745.268ZM426.912,787.918L469.562,787.918L469.562,830.569L426.912,830.569L426.912,787.918Z" style="fill:rgb(251,232,5);fill-opacity:0.26;"/>
                        <path d="M512.212,830.569L554.863,830.569L554.863,873.219L512.212,873.219L512.212,830.569ZM341.611,873.219L384.261,873.219L384.261,1001.17L341.611,1001.17L341.611,873.219ZM512.212,1043.82L554.863,1043.82L554.863,1086.471L512.212,1086.471L512.212,1043.82Z" style="fill:rgb(2,75,187);fill-opacity:0.96;"/>
                        <path d="M426.912,745.268L469.562,745.268L469.562,787.918L426.912,787.918L426.912,745.268ZM426.912,1086.471L469.562,1086.471L469.562,1129.121L426.912,1129.121L426.912,1086.471Z" style="fill:rgb(41,1,93);fill-opacity:0.63;"/>
                        <path d="M554.863,830.569L597.513,830.569L597.513,873.219L554.863,873.219L554.863,830.569ZM384.261,873.219L426.912,873.219L426.912,915.869L384.261,915.869L384.261,873.219ZM384.261,958.52L426.912,958.52L426.912,1043.82L384.261,1043.82L384.261,958.52ZM554.863,1001.17L597.513,1001.17L597.513,1043.82L554.863,1043.82L554.863,1001.17Z" style="fill:rgb(7,236,249);fill-opacity:0.31;"/>
                        <rect x="298.96" y="1043.82" width="42.65" height="42.65" style="fill:rgb(248,227,1);fill-opacity:0.46;"/>
                        <rect x="426.912" y="1129.121" width="42.65" height="42.65" style="fill:rgb(12,119,212);fill-opacity:0.14;"/>
                        <path d="M512.212,745.268L554.863,745.268L554.863,787.918L512.212,787.918L512.212,745.268ZM384.261,915.869L426.912,915.869L426.912,958.52L384.261,958.52L384.261,915.869Z" style="fill:rgb(5,247,247);fill-opacity:0.12;"/>
                        <path d="M298.96,787.918L341.611,787.918L341.611,830.569L298.96,830.569L298.96,787.918ZM384.261,1129.121L426.912,1129.121L426.912,1171.772L384.261,1171.772L384.261,1129.121Z" style="fill:rgb(237,246,0);fill-opacity:0.11;"/>
                        <path d="M384.261,830.569L426.912,830.569L426.912,873.219L384.261,873.219L384.261,830.569ZM554.863,873.219L597.513,873.219L597.513,1001.17L554.863,1001.17L554.863,873.219ZM512.212,1086.471L554.863,1086.471L554.863,1129.121L512.212,1129.121L512.212,1086.471Z" style="fill:rgb(3,192,250);fill-opacity:0.6;"/>
                        <path d="M469.562,787.918L512.212,787.918L512.212,830.569L469.562,830.569L469.562,787.918ZM341.611,787.918L384.261,787.918L384.261,830.569L341.611,830.569L341.611,787.918Z" style="fill:rgb(169,43,2);fill-opacity:0.94;"/>
                        <path d="M469.562,830.569L512.212,830.569L512.212,873.219L469.562,873.219L469.562,830.569ZM298.96,873.219L341.611,873.219L341.611,1043.82L298.96,1043.82L298.96,873.219ZM469.562,1043.82L512.212,1043.82L512.212,1086.471L469.562,1086.471L469.562,1043.82ZM341.611,1086.471L384.261,1086.471L384.261,1129.121L341.611,1129.121L341.611,1086.471Z" style="fill:rgb(236,124,2);fill-opacity:0.99;"/>
                        <path d="M298.96,830.569L341.611,830.569L341.611,873.219L298.96,873.219L298.96,830.569ZM469.562,873.219L512.212,873.219L512.212,915.869L469.562,915.869L469.562,873.219ZM469.562,958.52L512.212,958.52L512.212,1043.82L469.562,1043.82L469.562,958.52Z" style="fill:rgb(250,171,2);fill-opacity:0.81;"/>
                        <path d="M341.611,830.569L384.261,830.569L384.261,873.219L341.611,873.219L341.611,830.569ZM512.212,873.219L554.863,873.219L554.863,1043.82L512.212,1043.82L512.212,873.219ZM341.611,1001.17L384.261,1001.17L384.261,1086.471L341.611,1086.471L341.611,1001.17ZM469.562,1086.471L512.212,1086.471L512.212,1129.121L469.562,1129.121L469.562,1086.471ZM384.261,1086.471L426.912,1086.471L426.912,1129.121L384.261,1129.121L384.261,1086.471Z" style="fill:rgb(61,2,109);fill-opacity:0.94;"/>
                        <path d="M469.562,745.268L512.212,745.268L512.212,787.918L469.562,787.918L469.562,745.268ZM512.212,787.918L554.863,787.918L554.863,830.569L512.212,830.569L512.212,787.918ZM384.261,787.918L426.912,787.918L426.912,830.569L384.261,830.569L384.261,787.918ZM384.261,1043.82L426.912,1043.82L426.912,1086.471L384.261,1086.471L384.261,1043.82Z" style="fill:rgb(2,142,238);fill-opacity:0.94;"/>
                        <rect x="682.814" y="830.569" width="42.65" height="42.65" style="fill:rgb(136,158,0);fill-opacity:0.62;"/>
                        <rect x="640.163" y="1086.471" width="42.65" height="42.65" style="fill:rgb(168,64,2);fill-opacity:0.77;"/>
                        <rect x="597.513" y="830.569" width="42.65" height="42.65" style="fill:rgb(248,227,1);fill-opacity:0.46;"/>
                        <rect x="682.814" y="873.219" width="42.65" height="213.252" style="fill:rgb(250,188,3);fill-opacity:0.6;"/>
                        <path d="M768.115,787.918L810.765,787.918L810.765,1086.471L768.115,1086.471L768.115,787.918ZM810.765,1086.471L853.415,1086.471L853.415,1129.121L810.765,1129.121L810.765,1086.471Z" style="fill:rgb(2,142,238);fill-opacity:0.94;"/>
                        <path d="M682.814,787.918L725.464,787.918L725.464,830.569L682.814,830.569L682.814,787.918ZM682.814,1086.471L725.464,1086.471L725.464,1129.121L682.814,1129.121L682.814,1086.471Z" style="fill:rgb(169,43,2);fill-opacity:0.94;"/>
                        <path d="M597.513,787.918L640.163,787.918L640.163,830.569L597.513,830.569L597.513,787.918ZM597.513,1086.471L640.163,1086.471L640.163,1129.121L597.513,1129.121L597.513,1086.471Z" style="fill:rgb(237,246,0);fill-opacity:0.11;"/>
                        <rect x="768.115" y="1086.471" width="42.65" height="42.65" style="fill:rgb(2,75,187);fill-opacity:0.96;"/>
                        <rect x="725.464" y="787.918" width="42.65" height="298.553" style="fill:rgb(61,2,109);fill-opacity:0.94;"/>
                        <path d="M725.464,745.268L768.115,745.268L768.115,787.918L725.464,787.918L725.464,745.268ZM640.163,830.569L682.814,830.569L682.814,873.219L640.163,873.219L640.163,830.569Z" style="fill:rgb(65,21,3);fill-opacity:0.5;"/>
                        <rect x="640.163" y="787.918" width="42.65" height="42.65" style="fill:rgb(220,101,3);fill-opacity:0.65;"/>
                        <rect x="725.464" y="1086.471" width="42.65" height="42.65"/>
                    </g>
                    <g transform="matrix(2.525573,0,0,2.525573,-900.060054,-848.568728)">
                        <rect x="384.261" y="830.569" width="42.65" height="42.65" style="fill:rgb(136,158,0);fill-opacity:0.62;"/>
                        <rect x="341.611" y="1086.471" width="42.65" height="42.65" style="fill:rgb(168,64,2);fill-opacity:0.77;"/>
                        <rect x="298.96" y="830.569" width="42.65" height="42.65" style="fill:rgb(248,227,1);fill-opacity:0.46;"/>
                        <rect x="384.261" y="873.219" width="42.65" height="213.252" style="fill:rgb(250,188,3);fill-opacity:0.6;"/>
                        <rect x="384.261" y="745.268" width="42.65" height="42.65" style="fill:rgb(237,121,2);fill-opacity:0.38;"/>
                        <path d="M469.562,787.918L512.212,787.918L512.212,1086.471L469.562,1086.471L469.562,787.918ZM512.212,1086.471L554.863,1086.471L554.863,1129.121L512.212,1129.121L512.212,1086.471Z" style="fill:rgb(2,142,238);fill-opacity:0.94;"/>
                        <path d="M384.261,787.918L426.912,787.918L426.912,830.569L384.261,830.569L384.261,787.918ZM384.261,1086.471L426.912,1086.471L426.912,1129.121L384.261,1129.121L384.261,1086.471Z" style="fill:rgb(169,43,2);fill-opacity:0.94;"/>
                        <path d="M298.96,787.918L341.611,787.918L341.611,830.569L298.96,830.569L298.96,787.918ZM298.96,1086.471L341.611,1086.471L341.611,1129.121L298.96,1129.121L298.96,1086.471Z" style="fill:rgb(237,246,0);fill-opacity:0.11;"/>
                        <rect x="469.562" y="1086.471" width="42.65" height="42.65" style="fill:rgb(2,75,187);fill-opacity:0.96;"/>
                        <rect x="469.562" y="745.268" width="42.65" height="42.65" style="fill:rgb(3,192,250);fill-opacity:0.6;"/>
                        <rect x="426.912" y="787.918" width="42.65" height="298.553" style="fill:rgb(61,2,109);fill-opacity:0.94;"/>
                        <path d="M426.912,745.268L469.562,745.268L469.562,787.918L426.912,787.918L426.912,745.268ZM341.611,830.569L384.261,830.569L384.261,873.219L341.611,873.219L341.611,830.569Z" style="fill:rgb(65,21,3);fill-opacity:0.5;"/>
                        <rect x="341.611" y="787.918" width="42.65" height="42.65" style="fill:rgb(220,101,3);fill-opacity:0.65;"/>
                        <rect x="426.912" y="1086.471" width="42.65" height="42.65"/>
                        <rect x="779.193" y="915.869" width="42.65" height="42.65" style="fill:rgb(250,188,3);fill-opacity:0.6;"/>
                        <path d="M651.241,745.268L693.892,745.268L693.892,787.918L651.241,787.918L651.241,745.268ZM736.542,787.918L779.193,787.918L779.193,830.569L736.542,830.569L736.542,787.918Z" style="fill:rgb(251,232,5);fill-opacity:0.26;"/>
                        <path d="M821.843,830.569L864.493,830.569L864.493,873.219L821.843,873.219L821.843,830.569ZM651.241,873.219L693.892,873.219L693.892,1001.17L651.241,1001.17L651.241,873.219ZM821.843,1043.82L864.493,1043.82L864.493,1086.471L821.843,1086.471L821.843,1043.82Z" style="fill:rgb(2,75,187);fill-opacity:0.96;"/>
                        <path d="M736.542,745.268L779.193,745.268L779.193,787.918L736.542,787.918L736.542,745.268ZM736.542,1086.471L779.193,1086.471L779.193,1129.121L736.542,1129.121L736.542,1086.471Z" style="fill:rgb(41,1,93);fill-opacity:0.63;"/>
                        <rect x="693.892" y="745.268" width="42.65" height="42.65" style="fill:rgb(168,64,2);fill-opacity:0.77;"/>
                        <path d="M864.493,830.569L907.144,830.569L907.144,873.219L864.493,873.219L864.493,830.569ZM693.892,873.219L736.542,873.219L736.542,915.869L693.892,915.869L693.892,873.219ZM693.892,958.52L736.542,958.52L736.542,1043.82L693.892,1043.82L693.892,958.52ZM864.493,1001.17L907.144,1001.17L907.144,1043.82L864.493,1043.82L864.493,1001.17Z" style="fill:rgb(7,236,249);fill-opacity:0.31;"/>
                        <rect x="608.591" y="1043.82" width="42.65" height="42.65" style="fill:rgb(248,227,1);fill-opacity:0.46;"/>
                        <path d="M821.843,745.268L864.493,745.268L864.493,787.918L821.843,787.918L821.843,745.268ZM693.892,915.869L736.542,915.869L736.542,958.52L693.892,958.52L693.892,915.869Z" style="fill:rgb(5,247,247);fill-opacity:0.12;"/>
                        <path d="M608.591,787.918L651.241,787.918L651.241,830.569L608.591,830.569L608.591,787.918ZM693.892,1129.121L736.542,1129.121L736.542,1171.772L693.892,1171.772L693.892,1129.121Z" style="fill:rgb(237,246,0);fill-opacity:0.11;"/>
                        <path d="M693.892,830.569L736.542,830.569L736.542,873.219L693.892,873.219L693.892,830.569ZM864.493,873.219L907.144,873.219L907.144,1001.17L864.493,1001.17L864.493,873.219ZM821.843,1086.471L864.493,1086.471L864.493,1129.121L821.843,1129.121L821.843,1086.471Z" style="fill:rgb(3,192,250);fill-opacity:0.6;"/>
                        <path d="M779.193,787.918L821.843,787.918L821.843,830.569L779.193,830.569L779.193,787.918ZM651.241,787.918L693.892,787.918L693.892,830.569L651.241,830.569L651.241,787.918Z" style="fill:rgb(169,43,2);fill-opacity:0.94;"/>
                        <path d="M779.193,830.569L821.843,830.569L821.843,873.219L779.193,873.219L779.193,830.569ZM608.591,873.219L651.241,873.219L651.241,1043.82L608.591,1043.82L608.591,873.219ZM779.193,1043.82L821.843,1043.82L821.843,1086.471L779.193,1086.471L779.193,1043.82ZM651.241,1086.471L693.892,1086.471L693.892,1129.121L651.241,1129.121L651.241,1086.471Z" style="fill:rgb(236,124,2);fill-opacity:0.99;"/>
                        <path d="M608.591,830.569L651.241,830.569L651.241,873.219L608.591,873.219L608.591,830.569ZM779.193,873.219L821.843,873.219L821.843,915.869L779.193,915.869L779.193,873.219ZM779.193,958.52L821.843,958.52L821.843,1043.82L779.193,1043.82L779.193,958.52Z" style="fill:rgb(250,171,2);fill-opacity:0.81;"/>
                        <path d="M651.241,830.569L693.892,830.569L693.892,873.219L651.241,873.219L651.241,830.569ZM821.843,873.219L864.493,873.219L864.493,1043.82L821.843,1043.82L821.843,873.219ZM651.241,1001.17L693.892,1001.17L693.892,1086.471L651.241,1086.471L651.241,1001.17ZM779.193,1086.471L821.843,1086.471L821.843,1129.121L779.193,1129.121L779.193,1086.471ZM693.892,1086.471L736.542,1086.471L736.542,1129.121L693.892,1129.121L693.892,1086.471Z" style="fill:rgb(61,2,109);fill-opacity:0.94;"/>
                        <path d="M779.193,745.268L821.843,745.268L821.843,787.918L779.193,787.918L779.193,745.268ZM821.843,787.918L864.493,787.918L864.493,830.569L821.843,830.569L821.843,787.918ZM693.892,787.918L736.542,787.918L736.542,830.569L693.892,830.569L693.892,787.918ZM693.892,1043.82L736.542,1043.82L736.542,1086.471L693.892,1086.471L693.892,1043.82Z" style="fill:rgb(2,142,238);fill-opacity:0.94;"/>
                    </g>
                </g>
            </g>
        </g>
    </g>
</svg>
